<?xml version="1.0" standalone="no"?>
<!DOCTYPE svg PUBLIC "-//W3C//DTD SVG 20010904//EN"
 "http://www.w3.org/TR/2001/REC-SVG-20010904/DTD/svg10.dtd">
<svg version="1.0" xmlns="http://www.w3.org/2000/svg"
 width="800.000000pt" height="800.000000pt" viewBox="0 0 800.000000 800.000000"
 preserveAspectRatio="xMidYMid meet">
<metadata>
Created by potrace 1.16, written by Peter Selinger 2001-2019
</metadata>
<g transform="translate(0.000000,800.000000) scale(0.100000,-0.100000)"
fill="#000000" stroke="none">
<path d="M2218 7050 c-8 -25 -14 -29 -32 -23 -59 20 -67 14 -96 -77 -15 -47
-49 -150 -75 -230 -26 -80 -48 -149 -49 -155 -1 -5 -21 -68 -44 -140 -23 -71
-42 -133 -42 -137 -1 -4 -10 -29 -21 -54 -11 -26 -17 -49 -15 -51 2 -3 -4 -25
-15 -50 -11 -25 -17 -48 -15 -51 3 -2 -2 -19 -11 -36 -9 -17 -18 -43 -19 -59
-2 -15 -10 -41 -19 -57 -8 -16 -15 -36 -15 -45 0 -9 -7 -32 -16 -53 -9 -20
-18 -44 -19 -52 -4 -26 -47 -155 -56 -166 -5 -6 -6 -13 -3 -16 3 -3 -2 -23
-11 -44 -9 -22 -18 -47 -20 -58 -3 -10 -11 -37 -19 -60 -16 -46 -66 -203 -71
-226 -2 -8 -16 -49 -30 -90 -15 -41 -29 -86 -32 -100 -2 -14 -11 -39 -19 -57
-8 -17 -14 -37 -14 -44 0 -12 -42 -147 -75 -239 -33 -94 -46 -137 -50 -162 -2
-15 -10 -38 -17 -50 -7 -13 -13 -30 -14 -38 -1 -8 -15 -55 -31 -105 -17 -49
-51 -153 -75 -230 -40 -123 -60 -188 -125 -400 -9 -27 -22 -65 -29 -83 -8 -18
-14 -40 -14 -50 0 -9 -7 -30 -15 -46 -9 -16 -18 -46 -21 -65 -3 -20 -10 -41
-15 -47 -9 -11 -27 -67 -50 -159 -5 -21 -15 -45 -21 -52 -6 -7 -8 -13 -4 -13
3 0 -3 -24 -13 -52 -10 -29 -40 -120 -65 -203 -26 -82 -55 -172 -65 -200 -10
-27 -24 -70 -31 -95 -7 -25 -20 -67 -30 -95 -10 -27 -25 -77 -35 -110 -10 -33
-21 -68 -26 -77 -5 -9 -11 -31 -14 -49 -3 -17 -10 -40 -15 -49 -5 -9 -12 -32
-15 -50 -3 -18 -10 -41 -16 -52 -6 -11 -12 -29 -15 -41 -2 -12 -11 -42 -19
-67 -8 -25 -29 -85 -45 -135 -17 -49 -33 -99 -35 -110 -3 -11 -23 -74 -45
-140 -22 -66 -42 -130 -45 -141 -3 -12 -24 -80 -48 -150 -39 -118 -61 -244
-40 -231 5 3 26 -3 48 -13 22 -11 51 -19 66 -20 14 0 30 -5 35 -10 9 -9 61
-26 157 -51 21 -5 45 -13 55 -18 9 -5 44 -16 77 -26 107 -31 117 -36 132 -74
8 -20 23 -54 33 -76 10 -22 27 -66 37 -97 11 -31 24 -63 30 -70 6 -7 14 -24
18 -38 3 -14 15 -43 25 -65 10 -22 26 -56 34 -76 24 -56 36 -62 81 -39 22 11
46 20 55 20 8 0 26 9 40 20 14 11 33 20 43 20 9 0 25 4 35 9 21 12 103 48 192
86 36 15 74 31 85 36 39 17 271 112 315 129 51 20 111 45 155 65 17 7 55 23
85 35 30 12 73 30 95 40 22 11 52 22 68 26 15 3 27 10 27 15 0 5 7 9 15 9 8 0
34 9 58 19 23 11 71 31 107 46 36 15 83 35 105 45 22 10 52 22 68 25 15 4 31
13 35 20 4 6 27 19 52 27 50 16 50 15 120 248 18 58 38 121 46 140 7 19 16 52
20 73 3 20 10 40 15 43 5 3 9 15 9 27 0 12 7 36 16 52 9 17 18 42 20 56 2 14
9 39 15 55 7 16 14 40 16 54 2 14 11 35 19 48 8 12 12 22 9 22 -2 0 4 24 14
52 10 29 25 78 35 108 9 30 45 145 81 255 36 110 65 203 65 208 0 12 -23 7
-65 -13 -22 -11 -46 -19 -53 -20 -14 0 -44 -12 -138 -56 -28 -13 -54 -24 -58
-24 -4 0 -33 -12 -64 -26 -107 -49 -120 -54 -135 -54 -8 0 -20 -6 -26 -14 -7
-8 -27 -18 -44 -21 -18 -4 -48 -15 -67 -24 -75 -37 -106 -51 -135 -57 -16 -4
-37 -12 -45 -20 -8 -7 -28 -16 -45 -20 -16 -4 -34 -10 -40 -14 -5 -4 -48 -22
-95 -40 -47 -18 -105 -42 -130 -52 -25 -11 -54 -24 -65 -28 -45 -20 -103 -43
-147 -60 l-46 -18 14 42 c7 22 27 82 43 131 70 208 153 471 155 490 2 11 11
35 20 53 10 19 15 36 13 39 -3 2 2 21 10 41 9 20 18 51 20 67 3 17 10 39 16
50 6 11 12 31 14 43 1 13 9 35 17 48 9 13 16 34 16 46 0 13 7 37 16 53 9 17
17 39 18 50 2 11 15 56 29 100 67 205 91 281 93 290 1 6 15 48 30 95 16 47 29
90 30 95 0 6 6 22 12 38 7 15 14 38 16 50 6 27 35 110 53 154 7 17 13 39 13
50 0 10 7 31 15 47 8 15 15 38 15 50 1 11 7 32 15 46 8 14 14 33 15 43 0 11 6
33 13 50 8 18 22 59 31 92 10 33 31 98 47 145 16 47 32 96 34 110 3 14 12 41
19 60 8 19 28 78 44 130 17 52 49 154 71 226 23 73 44 143 46 157 3 13 12 38
20 53 8 16 15 38 15 49 1 11 7 31 15 45 8 14 14 34 15 45 0 11 7 34 16 50 8
17 17 46 20 65 2 19 11 44 19 57 8 12 15 32 15 43 0 12 7 34 15 50 9 17 13 30
10 30 -3 0 2 17 11 38 9 20 17 46 19 57 1 11 9 38 17 60 8 22 23 65 32 95 9
30 38 123 65 205 27 83 68 211 91 285 24 74 54 168 67 209 12 40 23 81 23 90
0 12 -27 24 -97 46 -53 16 -101 30 -107 30 -6 1 -24 7 -40 13 -16 7 -42 14
-58 16 -15 2 -34 9 -42 15 -8 6 -29 14 -47 16 -19 2 -50 11 -69 18 -54 22
-105 37 -124 37 -10 0 -32 6 -49 14 -37 16 -440 136 -457 136 -6 0 -16 -14
-22 -30z"/>
<path d="M7360 6759 c-345 -38 -458 -53 -471 -65 -10 -9 -36 -18 -58 -21 -30
-4 -50 -16 -79 -47 -22 -22 -351 -349 -732 -726 -381 -377 -715 -707 -741
-734 -27 -27 -52 -46 -55 -43 -7 6 22 118 42 164 8 17 14 38 14 47 0 9 7 33
16 54 9 20 18 50 20 66 2 16 8 34 13 40 8 9 29 79 46 151 3 11 9 31 13 45 5
14 17 52 27 85 9 33 23 78 30 100 7 22 34 110 59 195 26 85 51 169 57 185 6
17 15 46 19 65 4 19 14 51 20 70 35 97 38 112 33 126 -3 8 -12 14 -21 14 -9 0
-29 4 -46 10 -58 18 -221 54 -233 52 -7 -2 -22 2 -33 8 -11 6 -35 13 -53 15
-34 4 -183 40 -232 55 -16 5 -48 12 -69 15 -22 2 -44 9 -50 15 -5 5 -21 10
-35 10 -15 0 -80 14 -146 30 -165 42 -201 46 -214 22 -6 -11 -7 -22 -3 -26 3
-4 -17 -4 -45 -1 -56 6 -62 2 -70 -47 -3 -17 -10 -43 -15 -57 -6 -14 -13 -35
-15 -46 -3 -18 -42 -157 -63 -230 -5 -16 -11 -42 -14 -57 -2 -15 -7 -32 -10
-37 -3 -5 -8 -26 -12 -47 -3 -22 -10 -46 -15 -55 -4 -9 -10 -27 -13 -40 -2
-13 -11 -49 -19 -79 -47 -175 -59 -219 -72 -261 -8 -26 -15 -54 -15 -64 0 -9
-6 -31 -14 -48 -7 -18 -18 -52 -25 -77 -6 -25 -13 -52 -15 -60 -3 -8 -11 -40
-19 -70 -36 -134 -59 -218 -69 -250 -6 -19 -13 -47 -14 -61 -2 -14 -9 -39 -15
-55 -7 -16 -14 -40 -15 -53 -2 -14 -8 -36 -13 -50 -11 -28 -33 -107 -36 -131
-2 -15 -9 -37 -26 -78 -5 -13 -7 -28 -3 -33 3 -6 -1 -20 -9 -32 -8 -13 -17
-41 -20 -64 -4 -23 -10 -50 -15 -60 -9 -17 -26 -78 -38 -133 -2 -14 -15 -61
-28 -105 -13 -44 -29 -105 -36 -135 -7 -30 -18 -71 -25 -90 -14 -40 -32 -105
-46 -169 -5 -24 -14 -50 -20 -57 -6 -8 -9 -14 -6 -14 3 0 1 -15 -4 -32 -9 -31
-51 -186 -69 -253 -4 -16 -18 -66 -30 -110 -12 -44 -24 -91 -26 -105 -3 -14
-9 -38 -14 -55 -33 -102 -60 -204 -60 -226 -1 -13 -7 -35 -15 -49 -8 -14 -14
-36 -15 -48 0 -13 -6 -38 -14 -55 -13 -31 -31 -95 -41 -147 -3 -14 -10 -36
-14 -50 -5 -14 -21 -70 -35 -125 -15 -55 -32 -116 -38 -135 -6 -19 -13 -47
-14 -62 -2 -15 -10 -43 -18 -63 -8 -19 -13 -35 -11 -35 2 0 -3 -19 -11 -42 -9
-24 -17 -52 -18 -63 -2 -11 -15 -58 -29 -105 -14 -47 -35 -121 -46 -165 -18
-75 -58 -224 -86 -325 -6 -25 -20 -76 -30 -115 -9 -38 -24 -85 -31 -103 -8
-18 -14 -43 -14 -57 0 -13 -4 -34 -9 -47 -5 -13 -10 -27 -11 -33 -1 -5 -9 -30
-17 -55 -7 -25 -16 -52 -18 -61 -2 -8 -10 -40 -19 -69 -18 -60 -21 -204 -6
-245 l10 -25 97 50 c54 28 123 66 153 85 30 19 73 44 94 55 21 12 48 30 59 41
11 10 30 22 41 25 11 4 37 19 59 35 22 16 46 29 53 29 7 0 14 4 16 9 4 11 253
161 267 161 6 0 11 3 11 8 0 4 17 16 38 27 20 11 51 29 67 41 17 12 40 25 53
29 12 3 22 10 22 14 0 5 25 21 55 36 30 16 55 31 55 35 0 3 22 17 50 29 28 12
50 26 50 31 0 4 15 14 33 21 33 13 60 42 64 69 1 8 6 23 12 35 16 32 51 137
56 169 2 16 11 39 20 52 8 13 15 31 15 41 0 10 7 31 15 47 8 16 18 42 20 59 3
16 10 39 16 49 6 11 13 32 15 46 3 15 10 32 16 39 6 7 12 27 14 43 2 17 10 44
19 60 8 16 15 36 15 45 0 10 6 31 14 48 7 18 24 66 36 107 13 41 28 86 33 100
6 14 11 32 13 40 2 9 11 34 20 55 10 22 18 45 18 50 1 13 47 147 55 160 3 6 6
16 7 23 3 15 30 98 50 152 7 19 32 94 55 165 23 72 49 151 58 178 8 26 18 47
21 47 5 0 39 -109 60 -190 16 -66 51 -185 61 -208 5 -13 9 -34 9 -47 0 -13 4
-26 9 -29 5 -3 11 -20 14 -38 8 -56 81 -305 98 -340 5 -10 9 -29 9 -42 0 -14
4 -35 9 -48 5 -13 19 -57 31 -98 12 -41 26 -85 31 -98 5 -13 9 -36 9 -52 0
-16 5 -32 10 -35 6 -3 10 -18 10 -33 0 -15 6 -36 13 -47 7 -11 21 -56 31 -100
10 -44 22 -88 27 -97 5 -10 13 -34 18 -55 5 -21 17 -63 25 -93 9 -30 19 -73
23 -95 3 -22 12 -49 19 -60 8 -11 14 -29 14 -41 0 -30 28 -82 48 -88 9 -3 55
-7 102 -11 47 -3 99 -7 115 -9 17 -3 75 -7 130 -11 121 -8 223 -20 249 -31 15
-6 17 -4 11 6 -5 8 -4 11 3 6 11 -6 49 -10 222 -21 52 -3 102 -8 110 -11 8 -3
55 -8 104 -10 49 -2 93 -7 97 -10 5 -3 23 -3 39 1 26 6 29 10 24 32 -7 25 -5
26 26 20 17 -4 42 -4 55 -1 21 5 23 10 18 42 -3 21 -12 52 -19 71 -8 18 -14
46 -14 62 0 16 -4 29 -9 29 -5 0 -11 19 -14 43 -3 23 -10 62 -16 87 -5 25 -14
66 -20 93 -6 26 -15 56 -21 66 -5 11 -10 35 -10 55 0 19 -4 37 -9 40 -5 3 -11
23 -14 43 -10 68 -23 128 -30 140 -4 7 -12 33 -18 60 -10 46 -19 86 -38 176
-6 23 -13 56 -16 72 -6 28 -24 98 -46 171 -5 17 -9 42 -9 57 0 14 -4 29 -10
32 -5 3 -10 26 -10 51 0 24 -4 44 -8 44 -4 0 -13 26 -20 58 -7 31 -17 76 -22
100 -19 79 -30 132 -38 175 -5 23 -12 49 -17 57 -5 8 -12 34 -17 57 -4 24 -12
62 -17 86 -6 23 -14 63 -20 88 -5 25 -14 56 -19 70 -6 13 -15 51 -22 84 -7 33
-16 70 -21 83 -5 13 -9 37 -9 53 0 17 -5 40 -12 52 -6 12 -15 39 -20 60 -4 20
-12 54 -17 75 -5 20 -16 73 -25 117 -9 44 -21 94 -26 112 -11 31 -8 36 67 134
43 56 87 113 97 128 43 57 162 215 293 387 76 99 148 194 160 210 12 16 36 47
53 69 84 109 116 151 130 172 8 12 83 109 165 217 83 108 168 220 190 250 22
29 87 116 145 191 58 76 135 179 173 229 37 50 85 114 107 141 21 28 53 68 70
90 17 22 49 65 73 95 77 100 78 102 71 180 -4 38 -10 69 -13 69 -3 -1 -211
-23 -461 -50z"/>
</g>
</svg>
